<svg width="35" height="19" viewBox="0 0 35 19" fill="none" xmlns="http://www.w3.org/2000/svg">
<path d="M10.5174 18.9682C4.68669 18.9682 0 14.7243 0 9.4841C0 4.24386 4.68669 0 10.5174 0C13.5065 0 15.4255 1.2547 16.9385 1.69754C20.6657 2.69392 19.3741 8.81984 16.1267 8.81984C13.4696 8.81984 14.3553 5.49856 12.8423 3.6165C11.2924 1.62374 8.48771 1.36541 6.90088 2.58322C3.43199 5.24024 9.22578 16.1267 14.097 16.1267C13.8018 15.1303 13.0637 13.6172 13.0637 12.3994C13.0637 10.7757 14.0601 10.0376 16.4219 10.0376C18.7837 10.0376 19.9646 10.7757 19.9646 12.3994C19.9646 14.4291 18.8206 15.241 18.8206 17.7504C18.8206 20.2229 16.4588 18.2301 15.0196 18.2301C13.5803 18.2301 13.4696 18.9682 10.5174 18.9682Z" fill="white"/>
<path d="M28.2098 15.0652C24.1505 15.0652 20.8661 12.3343 20.8661 8.90234C20.8661 5.50725 24.1505 2.73952 28.2098 2.73952C31.9739 2.73952 35 5.13822 35 7.3155C35 10.1201 30.2764 9.49278 29.3907 11.3379C30.8669 11.8915 32.4168 11.7439 32.9334 10.8213C33.4132 10.0094 35.5166 10.3785 34.7786 11.6701C33.5977 13.6997 31.0883 15.0652 28.2098 15.0652ZM29.6121 5.32273C29.6121 3.95732 26.3278 4.06803 26.3278 7.09408C26.3278 8.57021 26.992 9.7142 27.9146 10.4523C28.0991 8.71782 29.6121 6.50363 29.6121 5.32273Z" fill="white"/>
<path d="M29.7153 17.5798C29.7153 18.3581 29.0843 18.9891 28.306 18.9891C27.5276 18.9891 26.8967 18.3581 26.8967 17.5798C26.8967 16.8014 27.5276 16.1705 28.306 16.1705C29.0843 16.1705 29.7153 16.8014 29.7153 17.5798Z" fill="white"/>
</svg>
